<svg width="256" height="256" viewBox="0 0 256 256" fill="none" xmlns="http://www.w3.org/2000/svg">
<path fill-rule="evenodd" clip-rule="evenodd" d="M110.288 0.697115C59.4159 7.67911 17.4849 44.5041 4.29691 93.7821C-11.6151 153.242 17.7749 216.543 74.1059 244.135C90.5719 252.2 101.841 254.918 119.288 255.03C132.695 255.116 133.53 255.001 139.002 252.314C154.773 244.569 160.437 226.738 152.934 208.453C145.293 189.832 151.554 171.787 168.565 163.407L175.236 160.12L203.262 159.61C229.945 159.124 231.538 158.987 236.502 156.752C242.744 153.942 250.113 146.397 253.021 139.837C255.906 133.329 256.345 123.341 254.343 109.693C246.519 56.3431 207.858 14.7131 154.788 2.49511C144.795 0.194114 120.966 -0.768885 110.288 0.697115ZM134.117 32.9841C144.391 37.2771 146.896 50.7471 138.906 58.7381C132.419 65.2241 123.157 65.2241 116.67 58.7381C104.304 46.3711 117.949 26.2291 134.117 32.9841ZM70.1169 64.9841C80.3909 69.2771 82.8959 82.7471 74.9059 90.7381C68.4189 97.2241 59.1569 97.2241 52.6699 90.7381C40.3039 78.3711 53.9489 58.2291 70.1169 64.9841ZM198.117 64.9841C208.391 69.2771 210.896 82.7471 202.906 90.7381C196.419 97.2241 187.157 97.2241 180.67 90.7381C168.304 78.3711 181.949 58.2291 198.117 64.9841ZM54.2219 129.605C59.9379 132.396 63.0189 137.306 63.0189 143.627C63.0189 158.621 45.1679 165.18 35.5309 153.727C30.6889 147.972 30.6869 139.27 35.5279 133.517C40.5069 127.6 47.2329 126.193 54.2219 129.605Z" fill="#DEDEDE"/>
</svg>
